<?xml version="1.0" standalone="no"?>
<!DOCTYPE svg PUBLIC "-//W3C//DTD SVG 20010904//EN"
 "http://www.w3.org/TR/2001/REC-SVG-20010904/DTD/svg10.dtd">
<svg version="1.0" xmlns="http://www.w3.org/2000/svg"
 width="675.000000pt" height="175.000000pt" viewBox="0 0 675.000000 175.000000"
 preserveAspectRatio="xMidYMid meet">

<g transform="translate(0.000000,175.000000) scale(0.100000,-0.100000)"
fill="#000000" stroke="none">
<path d="M620 1159 l0 -170 -34 35 c-102 109 -300 114 -414 11 -87 -78 -123
-191 -102 -321 26 -164 135 -265 289 -268 96 -2 156 19 213 74 l48 46 0 -58 0
-58 45 0 45 0 0 440 0 440 -45 0 -45 0 0 -171z m-158 -145 c54 -18 107 -66
134 -120 28 -57 26 -185 -3 -240 -27 -51 -80 -98 -128 -114 -60 -20 -156 -9
-203 23 -115 76 -138 277 -45 388 58 69 155 94 245 63z"/>
<path d="M6090 890 l0 -440 45 0 45 0 0 203 c0 117 5 219 11 242 17 60 83 121
141 130 100 15 173 -20 209 -100 16 -35 19 -68 19 -257 l0 -218 45 0 45 0 0
233 c-1 250 -5 278 -55 343 -80 105 -286 114 -387 17 l-28 -27 0 157 0 157
-45 0 -45 0 0 -440z"/>
<path d="M4068 1137 c-154 -65 -234 -192 -226 -360 6 -142 81 -257 206 -315
85 -40 206 -43 293 -8 l63 25 111 -108 c60 -60 120 -112 133 -116 54 -16 113
43 97 97 -4 13 -56 73 -116 133 l-108 111 25 63 c35 87 32 208 -8 293 -34 73
-103 142 -176 176 -83 39 -213 42 -294 9z m238 -64 c67 -23 154 -110 177 -177
21 -62 22 -139 1 -198 -17 -53 -82 -131 -91 -110 -13 33 -58 73 -92 83 -21 6
-72 10 -114 7 -84 -4 -120 -22 -147 -74 -8 -16 -17 -31 -18 -34 -2 -3 -21 14
-42 38 -68 76 -88 186 -53 288 22 64 110 154 173 177 60 21 145 21 206 0z"/>
<path d="M4149 945 c-29 -16 -59 -70 -59 -107 0 -37 37 -88 77 -105 65 -27
142 14 160 85 10 40 -14 101 -50 122 -37 23 -91 25 -128 5z"/>
<path d="M1155 1099 c-91 -22 -180 -109 -207 -203 -18 -64 -15 -193 6 -256 26
-74 102 -150 176 -176 79 -26 190 -24 257 6 53 23 127 91 142 133 26 69 27 67
-26 67 -47 0 -49 -1 -68 -42 -65 -134 -287 -138 -368 -7 -15 25 -30 62 -34 82
l-6 37 268 0 268 0 -6 74 c-7 97 -37 166 -97 219 -76 69 -189 93 -305 66z
m203 -98 c50 -26 92 -84 99 -140 l6 -41 -218 0 -217 0 6 38 c11 59 54 113 116
145 47 24 64 28 111 24 30 -3 74 -14 97 -26z"/>
<path d="M2609 1096 c-97 -34 -133 -87 -127 -182 3 -53 9 -69 32 -93 33 -34
95 -63 187 -86 127 -32 177 -80 148 -140 -25 -50 -63 -70 -134 -69 -43 0 -72
6 -92 18 -36 24 -62 56 -63 79 0 14 -9 17 -51 17 l-51 0 6 -32 c11 -57 51
-104 111 -133 47 -24 70 -28 139 -28 70 -1 91 3 132 24 109 56 138 185 58 264
-28 28 -57 42 -156 72 -135 42 -178 71 -178 121 0 130 250 133 276 3 6 -29 9
-31 50 -31 43 0 44 1 44 33 -1 69 -67 144 -149 167 -49 14 -138 12 -182 -4z"/>
<path d="M3355 1096 c-141 -45 -215 -152 -215 -315 0 -152 51 -246 166 -302
59 -29 75 -33 148 -32 131 1 213 43 267 137 42 74 39 86 -19 86 -46 0 -49 -2
-61 -35 -16 -46 -73 -91 -132 -105 -126 -30 -250 50 -275 179 l-6 31 267 0
268 0 -5 79 c-8 142 -80 240 -201 276 -61 18 -147 18 -202 1z m166 -77 c73
-22 126 -84 144 -166 l7 -33 -222 0 -222 0 7 33 c27 128 157 204 286 166z"/>
<path d="M4986 1095 c-21 -7 -54 -28 -72 -46 l-34 -33 0 42 0 42 -45 0 -45 0
0 -325 0 -325 44 0 45 0 3 229 c3 215 4 231 24 258 32 43 79 70 134 78 l50 7
0 44 c0 43 -1 44 -32 44 -18 -1 -50 -7 -72 -15z"/>
<path d="M5462 1096 c-87 -28 -148 -88 -188 -181 -24 -57 -25 -203 -1 -272 50
-143 194 -221 358 -193 111 19 208 99 225 188 l7 32 -46 0 c-42 0 -48 -3 -63
-32 -28 -55 -66 -88 -121 -104 -106 -31 -209 12 -257 107 -36 73 -37 190 -2
265 60 129 226 164 333 71 20 -17 42 -46 50 -64 12 -30 17 -33 58 -33 39 0 45
3 45 20 0 56 -83 156 -155 186 -54 22 -188 28 -243 10z"/>
<path d="M1700 1097 c0 -1 58 -147 128 -323 l129 -319 50 -3 50 -3 130 323
131 323 -45 3 c-25 2 -49 0 -53 -5 -4 -4 -52 -124 -106 -265 -55 -142 -102
-258 -105 -258 -3 0 -51 118 -106 263 l-101 262 -51 3 c-28 2 -51 1 -51 -1z"/>
</g>
</svg>
